<svg width="16" height="16" viewBox="0 0 16 16" fill="none" xmlns="http://www.w3.org/2000/svg">
<g clip-path="url(#clip0_20_996)">
<path d="M12.5043 8.49937C12.5043 3.91191 8.50997 0.282111 8.33991 0.129913C8.14656 -0.0432705 7.85384 -0.0433384 7.66035 0.129913C7.49029 0.282179 3.49573 3.91191 3.49573 8.49937C3.49573 9.60721 3.97433 10.7379 4.8088 11.6017C5.55593 12.3752 6.49371 12.85 7.49077 12.9715V15.4906C7.49077 15.7719 7.71876 15.9999 8.00013 15.9999C8.28151 15.9999 8.5095 15.7719 8.5095 15.4906V12.9715C9.50649 12.85 10.4441 12.3751 11.1912 11.6017C12.0257 10.7379 12.5043 9.60714 12.5043 8.49937ZM5.39959 4.90231L7.49077 6.99369V9.12209L4.81328 6.44426C4.96609 5.90467 5.16834 5.38811 5.39959 4.90231ZM8.5095 9.12277V6.99417L10.6007 4.90279C10.832 5.38886 11.0342 5.90562 11.1871 6.44548L8.5095 9.12277ZM10.101 3.964C10.0929 3.9712 10.0845 3.97812 10.0768 3.98593L8.5095 5.55342V1.77516C8.97709 2.30951 9.56843 3.06086 10.101 3.964ZM7.49077 1.77509V5.55287L5.92397 3.98593C5.91595 3.97799 5.9076 3.97092 5.89925 3.96359C6.43197 3.06052 7.02317 2.30931 7.49077 1.77509ZM4.51446 8.49937C4.51446 8.20944 4.53435 7.92318 4.56913 7.64092L7.49084 10.5628V11.9435C5.75683 11.6647 4.51446 10.0012 4.51446 8.49937ZM8.5095 11.9434V10.5634L11.4309 7.64215C11.4657 7.924 11.4856 8.20985 11.4856 8.49937C11.4855 10.0012 10.2433 11.6647 8.5095 11.9434Z" fill="#125F43"/>
</g>
<defs>
<clipPath id="clip0_20_996">
<rect width="16" height="16" fill="white"/>
</clipPath>
</defs>
</svg>
