<svg width="13" height="15" viewBox="0 0 13 15" fill="none" xmlns="http://www.w3.org/2000/svg">
<path d="M4.3478 1H8.10088V4.88902e-07H4.3478V1ZM11.1986 3.23197L11.2225 3.30354L12.1711 2.98701L12.1471 2.91544L11.1986 3.23197ZM1.22617 3.30354L1.25005 3.23197L0.301468 2.91544L0.277588 2.98701L1.22617 3.30354ZM5.52902 14.3333H6.91961V13.3333H5.52902V14.3333ZM10.5577 4.22625H1.89099V5.22625H10.5577V4.22625ZM1.39626 4.79867L2.39573 11.6254L3.38519 11.4805L2.38571 4.65381L1.39626 4.79867ZM10.0529 11.6254L11.0524 4.79867L10.0629 4.65381L9.06348 11.4805L10.0529 11.6254ZM6.91961 14.3333C7.45621 14.3333 7.90542 14.3343 8.26562 14.2889C8.63982 14.2417 8.98008 14.1383 9.27075 13.8871L8.61688 13.1305C8.53208 13.2038 8.40981 13.2627 8.14055 13.2967C7.85735 13.3324 7.48221 13.3333 6.91961 13.3333V14.3333ZM9.06348 11.4805C8.98195 12.0371 8.92668 12.4082 8.85035 12.6833C8.77775 12.9447 8.70168 13.0572 8.61688 13.1305L9.27075 13.8871C9.56148 13.6359 9.71302 13.3141 9.81388 12.9507C9.91102 12.6009 9.97522 12.1563 10.0529 11.6254L9.06348 11.4805ZM0.277588 2.98701C0.175368 3.29334 0.0836947 3.56539 0.037168 3.79069C-0.010552 4.02176 -0.0307521 4.28887 0.0922079 4.55259L0.998535 4.13001C1.00924 4.15297 0.986035 4.14049 1.0165 3.99295C1.04817 3.83963 1.11588 3.63405 1.22617 3.30354L0.277588 2.98701ZM1.89099 4.22625C1.54256 4.22625 1.32612 4.22541 1.17067 4.20691C1.02106 4.18911 1.01657 4.16315 1.03496 4.18057L0.347228 4.90653C0.558468 5.10665 0.818241 5.17203 1.05253 5.19991C1.28097 5.22709 1.56805 5.22625 1.89099 5.22625V4.22625ZM0.0922079 4.55259C0.154208 4.68556 0.240721 4.80563 0.347228 4.90653L1.03496 4.18057C1.01975 4.16616 1.00739 4.14901 0.998535 4.13001L0.0922079 4.55259ZM11.2225 3.30354C11.3327 3.63405 11.4005 3.83963 11.4321 3.99295C11.4626 4.14049 11.4394 4.15297 11.4501 4.13001L12.3564 4.5526C12.4794 4.28888 12.4592 4.02176 12.4115 3.79069C12.3649 3.56539 12.2733 3.29335 12.1711 2.98701L11.2225 3.30354ZM10.5577 5.22625C10.8806 5.22625 11.1677 5.22709 11.3961 5.19991C11.6304 5.17203 11.8901 5.10665 12.1014 4.90653L11.4137 4.18057C11.4321 4.16314 11.4276 4.18911 11.2779 4.20691C11.1225 4.22541 10.9061 4.22625 10.5577 4.22625V5.22625ZM11.4501 4.13001C11.4412 4.14901 11.4289 4.16616 11.4137 4.18057L12.1014 4.90653C12.2079 4.80563 12.2944 4.68555 12.3564 4.5526L11.4501 4.13001ZM8.10088 1C8.72355 1 9.15355 1.00059 9.48915 1.03449C9.81428 1.06733 10.0055 1.12807 10.1586 1.22216L10.6823 0.370267C10.3535 0.168147 9.99761 0.0807738 9.58968 0.0395605C9.19221 -0.000592848 8.70335 4.88902e-07 8.10088 4.88902e-07V1ZM12.1471 2.91544C11.9565 2.34393 11.8023 1.87999 11.6384 1.5157C11.4701 1.14176 11.2746 0.831801 10.9788 0.583907L10.3365 1.35034C10.4742 1.46574 10.5923 1.62798 10.7264 1.92597C10.8648 2.2336 11.0015 2.64131 11.1986 3.23197L12.1471 2.91544ZM10.1586 1.22216C10.2209 1.26049 10.2804 1.30333 10.3365 1.35034L10.9788 0.583907C10.8853 0.505554 10.7862 0.434147 10.6823 0.370267L10.1586 1.22216ZM5.52902 13.3333C4.96641 13.3333 4.59131 13.3324 4.30812 13.2967C4.03886 13.2627 3.91656 13.2038 3.83175 13.1305L3.17787 13.8871C3.46858 14.1383 3.80882 14.2417 4.18301 14.2889C4.54324 14.3343 4.99241 14.3333 5.52902 14.3333V13.3333ZM2.39573 11.6254C2.47346 12.1563 2.53762 12.6009 2.63475 12.9507C2.73564 13.3141 2.88715 13.6359 3.17787 13.8871L3.83175 13.1305C3.74695 13.0572 3.6709 12.9447 3.5983 12.6833C3.52194 12.4082 3.46668 12.0371 3.38519 11.4805L2.39573 11.6254ZM4.3478 4.88902e-07C3.74529 4.88902e-07 3.25641 -0.000592848 2.85897 0.0395605C2.45101 0.0807738 2.0951 0.168147 1.76632 0.370267L2.29003 1.22216C2.44309 1.12807 2.63439 1.06733 2.95948 1.03449C3.2951 1.00059 3.72511 1 4.3478 1V4.88902e-07ZM1.25005 3.23197C1.44715 2.6413 1.58382 2.23359 1.72221 1.92597C1.85627 1.62798 1.97443 1.46574 2.11213 1.35034L1.46981 0.583907C1.17402 0.831801 0.978475 1.14176 0.810255 1.51569C0.646368 1.87998 0.492181 2.34392 0.301468 2.91544L1.25005 3.23197ZM1.76632 0.370267C1.66241 0.434147 1.56331 0.505554 1.46981 0.583907L2.11213 1.35034C2.16823 1.30333 2.22769 1.26049 2.29003 1.22216L1.76632 0.370267Z" fill="#125F43"/>
</svg>
